<svg width="16" height="40" viewBox="0 0 16 40" fill="none" xmlns="http://www.w3.org/2000/svg">
<path d="M10.7952 8.92788C10.7324 8.12581 10.5697 7.33113 10.3184 6.56232C9.76397 4.88795 8.77708 3.39099 7.46863 2.24148C6.19714 1.12153 4.65214 0.352726 3.00364 0.0126767C2.79295 -0.0316775 2.57857 0.0422463 2.43812 0.204879C1.32926 1.48746 0.556759 3.04355 0.209317 4.71423C-0.149213 6.43296 -0.0457202 8.22931 0.508708 9.90368C0.763745 10.6725 1.10749 11.4043 1.53255 12.0844C2.18308 13.1194 3.10713 13.8512 4.2049 14.2023C4.60039 14.328 5.01067 14.4019 5.42834 14.4241C5.57249 15.7511 5.59466 17.0669 5.49117 18.3606C5.4653 18.6858 5.70925 18.9704 6.03451 18.9963C6.0493 18.9963 6.06778 19 6.08256 19C6.38935 19 6.64808 18.7671 6.67026 18.4567C6.77744 17.1039 6.74788 15.7326 6.59264 14.3539C6.55567 13.9991 6.50762 13.6442 6.45218 13.2894C6.35978 12.698 6.2415 12.1066 6.10104 11.5152C6.09365 11.4783 6.08256 11.4413 6.07517 11.4043L4.06444 10.7094C3.75396 10.6023 3.59133 10.2659 3.69852 9.95912C3.80571 9.64864 4.14206 9.48601 4.44885 9.5932L5.69077 10.022C5.14373 8.24039 4.37492 6.42926 3.39543 4.61443C3.24019 4.32613 3.34738 3.9676 3.63568 3.81236C3.92399 3.65712 4.28252 3.76431 4.43776 4.05261C4.85173 4.82142 5.22874 5.58653 5.56879 6.35164L5.80535 5.68263C5.91254 5.37585 6.25259 5.21321 6.55937 5.3204C6.86615 5.42759 7.02879 5.76764 6.9216 6.07443L6.24889 7.98166C6.65917 9.07204 6.99552 10.155 7.25425 11.2269C7.47602 12.151 7.64235 13.0787 7.74954 13.9991C8.61445 13.6294 9.36847 13.0307 9.90072 12.284C10.5845 11.3267 10.8913 10.1661 10.7952 8.92788Z" fill="white"/>
<path d="M14.8062 4.71423C14.4588 3.04725 13.6863 1.48746 12.5774 0.204879C12.4369 0.0422463 12.2189 -0.0316775 12.0119 0.0126768C10.7367 0.275106 9.52435 0.796269 8.45245 1.53551C9.82004 2.7996 10.8513 4.40375 11.4427 6.19271C11.7273 7.05022 11.9084 7.941 11.9786 8.83548C12.1006 10.3546 11.7125 11.7887 10.8661 12.9752C10.4669 13.537 9.97159 14.0249 9.40237 14.4278C9.88288 14.4204 10.3597 14.3465 10.8106 14.2023C11.9084 13.8512 12.8324 13.1194 13.483 12.0844C13.908 11.408 14.2555 10.6725 14.5068 9.90738C15.0612 8.22561 15.1647 6.43296 14.8062 4.71423Z" fill="white"/>
<path d="M10.7952 29.9279C10.7324 29.1258 10.5697 28.3311 10.3184 27.5623C9.76397 25.888 8.77708 24.391 7.46863 23.2415C6.19714 22.1215 4.65214 21.3527 3.00364 21.0127C2.79295 20.9683 2.57857 21.0422 2.43812 21.2049C1.32926 22.4875 0.556759 24.0436 0.209317 25.7142C-0.149213 27.433 -0.0457202 29.2293 0.508708 30.9037C0.763745 31.6725 1.10749 32.4043 1.53255 33.0844C2.18308 34.1194 3.10713 34.8512 4.2049 35.2023C4.60039 35.328 5.01067 35.4019 5.42834 35.4241C5.57249 36.7511 5.59466 38.0669 5.49117 39.3606C5.4653 39.6858 5.70925 39.9704 6.03451 39.9963C6.0493 39.9963 6.06778 40 6.08256 40C6.38935 40 6.64808 39.7671 6.67026 39.4567C6.77744 38.1039 6.74788 36.7326 6.59264 35.3539C6.55567 34.9991 6.50762 34.6442 6.45218 34.2894C6.35978 33.698 6.2415 33.1066 6.10104 32.5152C6.09365 32.4783 6.08256 32.4413 6.07517 32.4043L4.06444 31.7094C3.75396 31.6023 3.59133 31.2659 3.69852 30.9591C3.80571 30.6486 4.14206 30.486 4.44885 30.5932L5.69077 31.022C5.14373 29.2404 4.37492 27.4293 3.39543 25.6144C3.24019 25.3261 3.34738 24.9676 3.63568 24.8124C3.92399 24.6571 4.28252 24.7643 4.43776 25.0526C4.85173 25.8214 5.22874 26.5865 5.56879 27.3516L5.80535 26.6826C5.91254 26.3758 6.25259 26.2132 6.55937 26.3204C6.86615 26.4276 7.02879 26.7676 6.9216 27.0744L6.24889 28.9817C6.65917 30.072 6.99552 31.155 7.25425 32.2269C7.47602 33.151 7.64235 34.0787 7.74954 34.9991C8.61445 34.6294 9.36847 34.0307 9.90072 33.284C10.5845 32.3267 10.8913 31.1661 10.7952 29.9279Z" fill="url(#paint0)"/>
<path d="M14.8062 25.7142C14.4588 24.0472 13.6863 22.4875 12.5774 21.2049C12.4369 21.0422 12.2189 20.9683 12.0119 21.0127C10.7367 21.2751 9.52435 21.7963 8.45245 22.5355C9.82004 23.7996 10.8513 25.4038 11.4427 27.1927C11.7273 28.0502 11.9084 28.941 11.9786 29.8355C12.1006 31.3546 11.7125 32.7887 10.8661 33.9752C10.4669 34.537 9.97159 35.0249 9.40237 35.4278C9.88288 35.4204 10.3597 35.3465 10.8106 35.2023C11.9084 34.8512 12.8324 34.1194 13.483 33.0844C13.908 32.408 14.2555 31.6725 14.5068 30.9074C15.0612 29.2256 15.1647 27.433 14.8062 25.7142Z" fill="url(#paint1)"/>
<defs>
<linearGradient id="paint0" x1="4.02795e-08" y1="30.5" x2="10.8124" y2="30.5" gradientUnits="userSpaceOnUse">
<stop stop-color="#FBDCA5"/>
<stop offset="1" stop-color="#EABC6E"/>
</linearGradient>
<linearGradient id="paint1" x1="8.45245" y1="28.2139" x2="15.0155" y2="28.2139" gradientUnits="userSpaceOnUse">
<stop stop-color="#FBDCA5"/>
<stop offset="1" stop-color="#EABC6E"/>
</linearGradient>
</defs>
</svg>
