<svg width="18" height="39" viewBox="0 0 18 39" fill="none" xmlns="http://www.w3.org/2000/svg">
<g clip-path="url(#clip0)">
<path d="M5.50034 21.4999C4.32222 21.5018 3.35071 21.7513 2.44107 22.5C1.53143 23.2487 0.727931 24.5428 0.499555 25.6986C0.271179 26.8544 0.59989 28.8716 1.15641 29.91C1.71292 30.9484 2.91147 32.0502 4.00034 32.5C5.08921 32.9498 6.37331 33.3429 7.50043 33C8.50051 33 10.3464 31.48 11.0003 30.5C11.6542 29.52 12.1164 27.6724 12.0003 26.5C11.8843 25.3276 11.3338 23.8328 10.5004 23C10.0276 22.5251 9.11977 22.2559 8.50034 22C7.88091 21.7441 7.35536 20.979 6.50034 21.5L5.50034 21.4999ZM3.52688 29.7385C3.55301 29.7592 3.57447 29.7851 3.58984 29.8147C3.60521 29.8443 3.61416 29.8768 3.61608 29.91C3.61801 29.9433 3.61287 29.9766 3.60102 30.0077C3.58916 30.0389 3.57085 30.0672 3.54728 30.0907C3.52372 30.1143 3.49543 30.1326 3.46429 30.1445C3.43314 30.1563 3.39984 30.1615 3.36657 30.1595C3.3333 30.1576 3.30081 30.1487 3.27125 30.1333C3.24168 30.1179 3.2157 30.0965 3.19501 30.0703C2.41253 29.2867 1.97304 28.2246 1.97304 27.1172C1.97304 26.0098 2.41253 24.9477 3.19501 24.1641C3.24043 24.1281 3.29748 24.1101 3.35532 24.1135C3.41316 24.1168 3.46775 24.1413 3.50872 24.1823C3.54969 24.2232 3.57417 24.2778 3.57752 24.3357C3.58087 24.3935 3.56285 24.4505 3.52688 24.496C3.18264 24.8402 2.90957 25.2488 2.72327 25.6986C2.53696 26.1484 2.44107 26.6304 2.44107 27.1172C2.44107 27.604 2.53696 28.0861 2.72327 28.5358C2.90957 28.9856 3.18264 29.3942 3.52688 29.7385Z" fill="url(#paint0)"/>
<path d="M1.81688 22.7915C1.24822 23.36 0.797126 24.0351 0.489362 24.778C0.181598 25.5209 0.0231934 26.3172 0.0231934 27.1213C0.0231934 27.9255 0.181598 28.7217 0.489362 29.4647C0.797126 30.2076 1.24822 30.8826 1.81688 31.4512C2.85698 32.4794 4.22929 33.1036 5.68784 33.2118C7.14638 33.32 8.59579 32.9052 9.77626 32.0418C9.82164 32.0083 9.87748 31.9922 9.9337 31.9964C9.98992 32.0005 10.0428 32.0246 10.0828 32.0643L11.4891 33.4705L12.4959 32.4637L11.0897 31.0574C11.05 31.0174 11.0259 30.9645 11.0218 30.9083C11.0176 30.8521 11.0338 30.7962 11.0672 30.7509C11.9789 29.5084 12.3883 27.9676 12.2136 26.4364C12.0389 24.9053 11.2929 23.4964 10.1247 22.4912C8.95653 21.486 7.45211 20.9586 5.91199 21.0143C4.37188 21.0699 2.90946 21.7046 1.81688 22.7915ZM10.0856 31.0602C9.17322 31.9741 7.97208 32.5432 6.687 32.6705C5.40193 32.7978 4.11247 32.4754 3.03848 31.7584C1.96449 31.0413 1.17245 29.974 0.797403 28.7383C0.422353 27.5025 0.487512 26.175 0.981771 24.982C1.47603 23.7889 2.36879 22.8043 3.50784 22.1958C4.64689 21.5874 5.96171 21.3929 7.22814 21.6454C8.49457 21.898 9.6342 22.5819 10.4527 23.5808C11.2713 24.5796 11.7181 25.8314 11.7169 27.1227C11.7174 27.8541 11.5736 28.5784 11.2937 29.2541C11.0138 29.9297 10.6033 30.5435 10.0856 31.0602Z" fill="url(#paint1)"/>
<path d="M13.6207 36.6797C14.2648 37.5235 14.9314 38.3841 15.5895 38.8622C15.7303 38.9639 15.9028 39.0121 16.0759 38.9981C16.2491 38.9842 16.4116 38.9091 16.5345 38.7863L17.7748 37.546C17.8972 37.4228 17.9718 37.2601 17.9852 37.0869C17.9986 36.9138 17.9499 36.7415 17.8479 36.601C17.3698 35.9541 16.5035 35.2875 15.6654 34.6322C14.8273 33.9769 13.9976 33.375 13.4998 32.7282C13.4665 32.6844 13.4241 32.6485 13.3755 32.6227C13.327 32.597 13.2734 32.5821 13.2185 32.5791H13.1904C13.0846 32.5819 12.984 32.6252 12.9092 32.7L11.6773 33.9375C11.6358 33.9789 11.6035 34.0286 11.5826 34.0834C11.5618 34.1382 11.5528 34.1968 11.5564 34.2554C11.5594 34.3102 11.5743 34.3638 11.6 34.4124C11.6257 34.4609 11.6617 34.5033 11.7054 34.5366C12.3467 35.0204 12.9654 35.8275 13.6207 36.6797Z" fill="url(#paint2)"/>
</g>
<g clip-path="url(#clip1)">
<path d="M5.50034 0.499926C4.32222 0.501785 3.35071 0.751313 2.44107 1.5C1.53143 2.24869 0.727931 3.54282 0.499555 4.6986C0.271179 5.85437 0.59989 7.87163 1.15641 8.91003C1.71292 9.94842 2.91147 11.0502 4.00034 11.5C5.08921 11.9498 6.37331 12.3429 7.50043 12C8.50051 12 10.3464 10.48 11.0003 9.5C11.6542 8.52001 12.1164 6.67239 12.0003 5.5C11.8843 4.32761 11.3338 2.83278 10.5004 2C10.0276 1.52505 9.11977 1.25587 8.50034 0.99999C7.88091 0.744108 7.35536 -0.0210092 6.50034 0.50003L5.50034 0.499926ZM3.52688 8.73846C3.55301 8.75915 3.57447 8.78513 3.58984 8.8147C3.60521 8.84427 3.61416 8.87676 3.61608 8.91003C3.61801 8.9433 3.61287 8.9766 3.60102 9.00774C3.58916 9.03889 3.57085 9.06717 3.54728 9.09074C3.52372 9.1143 3.49543 9.13262 3.46429 9.14447C3.43314 9.15633 3.39984 9.16146 3.36657 9.15954C3.3333 9.15761 3.30081 9.14867 3.27125 9.1333C3.24168 9.11792 3.2157 9.09647 3.19501 9.07034C2.41253 8.28673 1.97304 7.22461 1.97304 6.11722C1.97304 5.00982 2.41253 3.9477 3.19501 3.16409C3.24043 3.12813 3.29748 3.11011 3.35532 3.11345C3.41316 3.1168 3.46775 3.14129 3.50872 3.18226C3.54969 3.22322 3.57417 3.27781 3.57752 3.33565C3.58087 3.39349 3.56285 3.45054 3.52688 3.49597C3.18264 3.84018 2.90957 4.24884 2.72327 4.6986C2.53696 5.14835 2.44107 5.6304 2.44107 6.11722C2.44107 6.60403 2.53696 7.08608 2.72327 7.53584C2.90957 7.98559 3.18264 8.39425 3.52688 8.73846Z" fill="white"/>
<path d="M1.81688 1.79148C1.24822 2.36005 0.797126 3.03506 0.489362 3.77798C0.181598 4.52091 0.0231934 5.31717 0.0231934 6.12132C0.0231934 6.92546 0.181598 7.72173 0.489362 8.46465C0.797126 9.20758 1.24822 9.88259 1.81688 10.4512C2.85698 11.4794 4.22929 12.1036 5.68784 12.2118C7.14638 12.32 8.59579 11.9052 9.77626 11.0418C9.82164 11.0083 9.87748 10.9922 9.9337 10.9964C9.98992 11.0005 10.0428 11.0246 10.0828 11.0643L11.4891 12.4705L12.4959 11.4637L11.0897 10.0574C11.05 10.0174 11.0259 9.96451 11.0218 9.90829C11.0176 9.85207 11.0338 9.79623 11.0672 9.75085C11.9789 8.50835 12.3883 6.96762 12.2136 5.43643C12.0389 3.90525 11.2929 2.49635 10.1247 1.49118C8.95653 0.486013 7.45211 -0.0414172 5.91199 0.0142515C4.37188 0.0699202 2.90946 0.70459 1.81688 1.79148ZM10.0856 10.0602C9.17322 10.9741 7.97208 11.5432 6.687 11.6705C5.40193 11.7978 4.11247 11.4754 3.03848 10.7584C1.96449 10.0413 1.17245 8.97396 0.797403 7.73825C0.422353 6.50255 0.487512 5.17501 0.981771 3.98197C1.47603 2.78894 2.36879 1.80426 3.50784 1.19583C4.64689 0.58739 5.96171 0.392864 7.22814 0.645411C8.49457 0.897957 9.6342 1.58194 10.4527 2.58075C11.2713 3.57956 11.7181 4.83136 11.7169 6.12273C11.7174 6.8541 11.5736 7.57838 11.2937 8.25407C11.0138 8.92975 10.6033 9.54353 10.0856 10.0602Z" fill="white"/>
<path d="M13.6207 15.6797C14.2648 16.5235 14.9314 17.3841 15.5895 17.8622C15.7303 17.9639 15.9028 18.0121 16.0759 17.9981C16.2491 17.9842 16.4116 17.9091 16.5345 17.7863L17.7748 16.546C17.8972 16.4228 17.9718 16.2601 17.9852 16.0869C17.9986 15.9138 17.9499 15.7415 17.8479 15.601C17.3698 14.9541 16.5035 14.2875 15.6654 13.6322C14.8273 12.9769 13.9976 12.375 13.4998 11.7282C13.4665 11.6844 13.4241 11.6485 13.3755 11.6227C13.327 11.597 13.2734 11.5821 13.2185 11.5791H13.1904C13.0846 11.5819 12.984 11.6252 12.9092 11.7L11.6773 12.9375C11.6358 12.9789 11.6035 13.0286 11.5826 13.0834C11.5618 13.1382 11.5528 13.1968 11.5564 13.2554C11.5594 13.3102 11.5743 13.3638 11.6 13.4124C11.6257 13.4609 11.6617 13.5033 11.7054 13.5366C12.3467 14.0204 12.9654 14.8275 13.6207 15.6797Z" fill="white"/>
</g>
<defs>
<linearGradient id="paint0" x1="0.426209" y1="27.2262" x2="12.0182" y2="27.2262" gradientUnits="userSpaceOnUse">
<stop stop-color="#FBDCA5"/>
<stop offset="1" stop-color="#EABC6E"/>
</linearGradient>
<linearGradient id="paint1" x1="0.0231934" y1="27.2404" x2="12.4959" y2="27.2404" gradientUnits="userSpaceOnUse">
<stop stop-color="#FBDCA5"/>
<stop offset="1" stop-color="#EABC6E"/>
</linearGradient>
<linearGradient id="paint2" x1="11.5556" y1="35.7898" x2="17.9874" y2="35.7898" gradientUnits="userSpaceOnUse">
<stop stop-color="#FBDCA5"/>
<stop offset="1" stop-color="#EABC6E"/>
</linearGradient>
<clipPath id="clip0">
<rect width="18" height="18" fill="white" transform="translate(0 21)"/>
</clipPath>
<clipPath id="clip1">
<rect width="18" height="18" fill="white"/>
</clipPath>
</defs>
</svg>
