<svg width="13" height="40" viewBox="0 0 13 40" fill="none" xmlns="http://www.w3.org/2000/svg">
<path d="M7.89803 10.8183C8.18025 11.5612 8.40544 14.2576 8.40544 14.2576C9.99954 14.4438 11.6321 14.4471 12.479 13.5157C12.4717 13.5045 12.3585 11.3405 12.0335 6.96603C11.7981 3.81377 9.0146 0.00371327 6.2387 2.43302e-06C3.45479 -0.0035131 0.679083 3.80342 0.443738 6.96622C0.119137 11.3407 0.00703106 13.5047 0 13.5159C0.526939 14.1028 1.43004 14.2373 4.16649 14.3313C4.37508 12.3952 4.8196 7.23848 5.60161 7.4914C5.7475 7.53906 5.5145 7.86132 5.43169 8.75797C5.36372 9.49819 5.12037 12.6397 4.9401 14.7656C4.9401 14.7656 5.75082 14.9607 6.23948 14.9607C6.88028 14.9607 7.36172 14.9037 7.69354 14.8736C7.69237 12.8481 7.62382 11.97 7.65761 11.2247C7.68749 10.5628 7.84354 10.6749 7.89803 10.8183Z" fill="white"/>
<path d="M6.53106 15.5683C6.0547 15.5683 5.35628 15.4804 4.81958 15.3647C4.81958 15.3647 4.87563 18.708 4.90981 18.7256C5.58577 19.0764 7.5408 19.1365 8.11754 18.6358C8.13844 18.6176 8.0984 15.3647 8.0984 15.3647C7.39939 15.5571 7.14452 15.5683 6.53106 15.5683Z" fill="white"/>
<path d="M7.89803 31.8183C8.18025 32.5612 8.40544 35.2576 8.40544 35.2576C9.99954 35.4438 11.6321 35.4471 12.479 34.5157C12.4717 34.5045 12.3585 32.3405 12.0335 27.966C11.7981 24.8138 9.0146 21.0037 6.2387 21C3.45479 20.9965 0.679083 24.8034 0.443738 27.9662C0.119137 32.3407 0.00703106 34.5047 0 34.5159C0.526939 35.1028 1.43004 35.2373 4.16649 35.3313C4.37508 33.3952 4.8196 28.2385 5.60161 28.4914C5.7475 28.5391 5.5145 28.8613 5.43169 29.758C5.36372 30.4982 5.12037 33.6397 4.9401 35.7656C4.9401 35.7656 5.75082 35.9607 6.23948 35.9607C6.88028 35.9607 7.36172 35.9037 7.69354 35.8736C7.69237 33.8481 7.62382 32.97 7.65761 32.2247C7.68749 31.5628 7.84354 31.6749 7.89803 31.8183Z" fill="url(#paint0)"/>
<path d="M6.53106 36.5683C6.0547 36.5683 5.35628 36.4804 4.81958 36.3647C4.81958 36.3647 4.87563 39.708 4.90981 39.7256C5.58577 40.0764 7.5408 40.1365 8.11754 39.6358C8.13844 39.6176 8.0984 36.3647 8.0984 36.3647C7.39939 36.5571 7.14452 36.5683 6.53106 36.5683Z" fill="url(#paint1)"/>
<defs>
<linearGradient id="paint0" x1="4.64878e-08" y1="28.4804" x2="12.479" y2="28.4804" gradientUnits="userSpaceOnUse">
<stop stop-color="#FBDCA5"/>
<stop offset="1" stop-color="#EABC6E"/>
</linearGradient>
<linearGradient id="paint1" x1="4.81958" y1="38.1824" x2="8.12358" y2="38.1824" gradientUnits="userSpaceOnUse">
<stop stop-color="#FBDCA5"/>
<stop offset="1" stop-color="#EABC6E"/>
</linearGradient>
</defs>
</svg>
