<svg width="18" height="42" viewBox="0 0 18 42" fill="none" xmlns="http://www.w3.org/2000/svg">
<path d="M8.83692 12.1963C11.1708 12.1963 13.0868 9.32749 13.2931 6.92676H4.38123C4.58729 9.32749 6.50277 12.1963 8.83692 12.1963Z" fill="white"/>
<path d="M8.83714 13.5615C3.95646 13.5615 0 15.0728 0 16.9375C0 18.8017 0 20.3128 8.83714 20.3128C17.6745 20.3128 17.6745 18.8017 17.6745 16.9375C17.6743 15.073 13.7181 13.5615 8.83714 13.5615Z" fill="white"/>
<path d="M4.20832 6.11389H13.4655C13.8261 6.11389 14.1186 5.82161 14.1186 5.46095C14.1186 5.10029 13.8261 4.80801 13.4655 4.80801H13.2876C13.2876 3.07331 12.2943 1.57175 10.8463 0.837108L10.4777 2.92841C10.4484 3.09407 10.3042 3.21053 10.1421 3.21053C10.1222 3.21053 10.1024 3.20895 10.0825 3.20534C9.89699 3.17216 9.77309 2.99544 9.80604 2.80992L10.2267 0.421149C10.069 0.168595 9.78843 0 9.4684 0H8.20517C7.88536 0 7.60505 0.168595 7.44706 0.421375L7.86821 2.81015C7.90094 2.99589 7.77725 3.17239 7.59151 3.20557C7.57142 3.20918 7.55156 3.21076 7.53192 3.21076C7.36919 3.21076 7.22497 3.0943 7.19609 2.92864L6.82752 0.837559C5.37923 1.57175 4.38639 3.07331 4.38639 4.80801H4.20832C3.84765 4.80801 3.5556 5.10029 3.5556 5.46095C3.5556 5.82161 3.84765 6.11389 4.20832 6.11389Z" fill="white"/>
<path d="M8.83692 33.1963C11.1708 33.1963 13.0868 30.3275 13.2931 27.9268H4.38123C4.58729 30.3275 6.50277 33.1963 8.83692 33.1963Z" fill="url(#paint0)"/>
<path d="M8.83714 34.5615C3.95646 34.5615 0 36.0728 0 37.9375C0 39.8017 0 41.3128 8.83714 41.3128C17.6745 41.3128 17.6745 39.8017 17.6745 37.9375C17.6743 36.073 13.7181 34.5615 8.83714 34.5615Z" fill="url(#paint1)"/>
<path d="M4.20832 27.1139H13.4655C13.8261 27.1139 14.1186 26.8216 14.1186 26.4609C14.1186 26.1003 13.8261 25.808 13.4655 25.808H13.2876C13.2876 24.0733 12.2943 22.5717 10.8463 21.8371L10.4777 23.9284C10.4484 24.0941 10.3042 24.2105 10.1421 24.2105C10.1222 24.2105 10.1024 24.209 10.0825 24.2053C9.89699 24.1722 9.77309 23.9954 9.80604 23.8099L10.2267 21.4211C10.069 21.1686 9.78843 21 9.4684 21H8.20517C7.88536 21 7.60505 21.1686 7.44706 21.4214L7.86821 23.8101C7.90094 23.9959 7.77725 24.1724 7.59151 24.2056C7.57142 24.2092 7.55156 24.2108 7.53192 24.2108C7.36919 24.2108 7.22497 24.0943 7.19609 23.9286L6.82752 21.8376C5.37923 22.5717 4.38639 24.0733 4.38639 25.808H4.20832C3.84765 25.808 3.5556 26.1003 3.5556 26.4609C3.5556 26.8216 3.84765 27.1139 4.20832 27.1139Z" fill="url(#paint2)"/>
<defs>
<linearGradient id="paint0" x1="4.38123" y1="30.5615" x2="13.2931" y2="30.5615" gradientUnits="userSpaceOnUse">
<stop stop-color="#FBDCA5"/>
<stop offset="1" stop-color="#EABC6E"/>
</linearGradient>
<linearGradient id="paint1" x1="6.58427e-08" y1="37.9372" x2="17.6745" y2="37.9372" gradientUnits="userSpaceOnUse">
<stop stop-color="#FBDCA5"/>
<stop offset="1" stop-color="#EABC6E"/>
</linearGradient>
<linearGradient id="paint2" x1="3.5556" y1="24.0569" x2="14.1186" y2="24.0569" gradientUnits="userSpaceOnUse">
<stop stop-color="#FBDCA5"/>
<stop offset="1" stop-color="#EABC6E"/>
</linearGradient>
</defs>
</svg>
