<svg width="41" height="41" viewBox="0 0 41 41" fill="none" xmlns="http://www.w3.org/2000/svg">
<circle opacity="0.25" cx="20.5" cy="20.5" r="20.5" fill="url(#paint0)"/>
<circle cx="20.5" cy="20.5" r="15.5" fill="url(#paint1)"/>
<path d="M21.6671 22.1069L22.5282 21.2455C22.6442 21.1309 22.7909 21.0525 22.9506 21.0197C23.1103 20.9869 23.276 21.0012 23.4277 21.0609L24.4772 21.4801C24.6305 21.5423 24.762 21.6486 24.855 21.7855C24.948 21.9223 24.9985 22.0837 25 22.2492V24.1721C24.9991 24.2847 24.9754 24.3959 24.9304 24.4991C24.8854 24.6024 24.82 24.6954 24.7381 24.7726C24.6563 24.8499 24.5596 24.9098 24.454 24.9486C24.3483 24.9875 24.2359 25.0046 24.1235 24.9989C16.7696 24.5413 15.2857 18.3112 15.0051 15.9268C14.9921 15.8097 15.004 15.6912 15.04 15.5791C15.0761 15.4669 15.1355 15.3637 15.2143 15.2761C15.2931 15.1886 15.3895 15.1187 15.4972 15.0711C15.605 15.0235 15.7215 14.9993 15.8393 15H17.696C17.8617 15.0005 18.0235 15.0506 18.1605 15.1438C18.2975 15.237 18.4035 15.3691 18.4649 15.523L18.8839 16.5729C18.9455 16.7241 18.9612 16.8901 18.9291 17.0501C18.897 17.2102 18.8184 17.3572 18.7032 17.4728L17.8421 18.3343C17.8421 18.3343 18.338 21.6916 21.6671 22.1069Z" fill="white"/>
<defs>
<linearGradient id="paint0" x1="1.52737e-07" y1="20.5" x2="41" y2="20.5" gradientUnits="userSpaceOnUse">
<stop stop-color="#7199F7"/>
<stop offset="1" stop-color="#3F72F6"/>
</linearGradient>
<linearGradient id="paint1" x1="5" y1="20.5" x2="36" y2="20.5" gradientUnits="userSpaceOnUse">
<stop stop-color="#7199F7"/>
<stop offset="1" stop-color="#3F72F6"/>
</linearGradient>
</defs>
</svg>
